# xmcd
#
# Track frame offsets: 
#        150
#        18347
#        31805
#        48136
#        64703
#        76780
#        104668
#        120083
#        141728
#        158986
#        176579
#
# Disc length: 2568 seconds
#
# Revision: 0
# Processed by: cddbd v1.5.2PL0 Copyright (c) Steve Scherf et al.
# Submitted via: ExactAudioCopy v0.99pb4
#
DISCID=860a060b
DTITLE=Дидюля - Аромат
DYEAR=2010
DGENRE=Blues
TTITLE0=Один день в сентябре
TTITLE1=Торо-ко-ко, пэк-пэк
TTITLE2=Воздушный змей
TTITLE3=Прогулка
TTITLE4=Звук
TTITLE5=После дождя
TTITLE6=Затерянный грот
TTITLE7=Кольца времени
TTITLE8=На рассвете
TTITLE9=Прощай поверхность!
TTITLE10=Аромат
EXTD=
EXTT0=
EXTT1=
EXTT2=
EXTT3=
EXTT4=
EXTT5=
EXTT6=
EXTT7=
EXTT8=
EXTT9=
EXTT10=
PLAYORDER=
